<?xml version="1.0" encoding="UTF-8" standalone="no"?>
<!-- Created with Inkscape (http://www.inkscape.org/) -->

<svg
   xmlns:dc="http://purl.org/dc/elements/1.1/"
   xmlns:cc="http://creativecommons.org/ns#"
   xmlns:rdf="http://www.w3.org/1999/02/22-rdf-syntax-ns#"
   xmlns:svg="http://www.w3.org/2000/svg"
   xmlns="http://www.w3.org/2000/svg"
   xmlns:sodipodi="http://sodipodi.sourceforge.net/DTD/sodipodi-0.dtd"
   xmlns:inkscape="http://www.inkscape.org/namespaces/inkscape"
   width="181"
   height="209"
   viewBox="0 0 47.889582 55.297917"
   version="1.1"
   id="svg8"
   inkscape:version="0.92.4 (5da689c313, 2019-01-14)"
   sodipodi:docname="Hex logo (rangemap).svg"
   inkscape:export-filename="C:\Users\User\Pictures\Inkscape\Hex logo (rangemap).png"
   inkscape:export-xdpi="96"
   inkscape:export-ydpi="96">
  <defs
     id="defs2" />
  <sodipodi:namedview
     id="base"
     pagecolor="#ffffff"
     bordercolor="#666666"
     borderopacity="1.0"
     inkscape:pageopacity="0"
     inkscape:pageshadow="2"
     inkscape:zoom="2.8"
     inkscape:cx="123.61663"
     inkscape:cy="91.996465"
     inkscape:document-units="mm"
     inkscape:current-layer="layer1"
     showgrid="false"
     units="px"
     inkscape:window-width="1920"
     inkscape:window-height="1017"
     inkscape:window-x="-8"
     inkscape:window-y="-8"
     inkscape:window-maximized="1"
     inkscape:pagecheckerboard="true" />
  <metadata
     id="metadata5">
    <rdf:RDF>
      <cc:Work
         rdf:about="">
        <dc:format>image/svg+xml</dc:format>
        <dc:type
           rdf:resource="http://purl.org/dc/dcmitype/StillImage" />
        <dc:title></dc:title>
      </cc:Work>
    </rdf:RDF>
  </metadata>
  <g
     inkscape:label="Layer 1"
     inkscape:groupmode="layer"
     id="layer1"
     transform="translate(0,-241.70207)">
    <path
       sodipodi:type="star"
       id="path3745"
       sodipodi:sides="6"
       sodipodi:cx="23.954239"
       sodipodi:cy="269.45282"
       sodipodi:r1="27.663858"
       sodipodi:r2="23.957603"
       sodipodi:arg1="-0.5169722"
       sodipodi:arg2="0.006626571"
       inkscape:flatsided="true"
       inkscape:rounded="0"
       inkscape:randomized="0"
       d="M 48.002975,255.77995 47.819659,283.4432 23.770924,297.11607 -0.09449691,283.12569 0.0888184,255.46244 24.137554,241.78957 Z"
       style="stroke-width:0.27151796" />
    <path
       style="fill:#2a7fff;stroke-width:0.35714287;fill-opacity:1"
       d="M 44.762378,182.87133 -0.15381322,156.55739 0.07676982,114.77167 C 0.20359053,91.789528 0.40694836,68.259278 0.52867618,62.482225 L 0.74999943,51.978492 45.928571,26.283598 91.107142,0.58870143 92.399085,1.2852978 C 93.109657,1.6684257 113.41425,13.538165 137.5204,27.662497 l 43.82936,25.680603 -0.21169,24.821428 c -0.11642,13.651786 -0.31075,37.132932 -0.43185,52.180322 l -0.22016,27.3589 -45.16029,25.67682 c -24.83816,14.12225 -45.269845,25.70559 -45.403745,25.74076 -0.1339,0.0352 -20.45574,-11.77733 -45.159647,-26.25 z"
       id="path3747"
       inkscape:connector-curvature="0"
       transform="matrix(0.26458333,0,0,0.26458333,0,241.70207)" />
    <path
       style="fill:none;stroke:#000000;stroke-width:0.26458332px;stroke-linecap:butt;stroke-linejoin:miter;stroke-opacity:1"
       d="m 0.06681738,273.48027 c -0.05236009,-0.22937 0.26365522,-0.19323 0.3340869,-0.33409 0.009961,-0.0199 -0.00996,-0.0469 0,-0.0668 0.006395,-0.0128 0.25447932,-0.26087 0.26726954,-0.26727 0.019921,-0.01 0.0510684,0.0157 0.0668174,0 0.0157491,-0.0157 -0.0157491,-0.0511 0,-0.0668 0.0157491,-0.0157 0.0510684,0.0157 0.0668174,0 0.0157491,-0.0157 -0.0157491,-0.0511 0,-0.0668 0.0157491,-0.0157 0.0445449,0 0.0668174,0 0.0445449,-0.0223 0.0984189,-0.0316 0.13363478,-0.0668 0.015749,-0.0157 0,-0.0445 0,-0.0668 0.022272,0 0.051068,0.0157 0.066817,0 0.015749,-0.0157 -0.015749,-0.0511 0,-0.0668 0.015749,-0.0157 0.051068,0.0157 0.066817,0 0.015749,-0.0157 -0.00996,-0.0469 0,-0.0668 0.014086,-0.0282 0.052731,-0.0386 0.066817,-0.0668 0.00996,-0.0199 -0.015749,-0.0511 0,-0.0668 0.015749,-0.0157 0.046896,0.01 0.066817,0 0.028173,-0.0141 0.038645,-0.0527 0.066817,-0.0668 0.019921,-0.01 0.056857,0.0199 0.066817,0 0,-0.37863 -0.044545,-0.0223 0.066817,-0.13364 0.015749,-0.0157 -0.015749,-0.0511 0,-0.0668 0.015749,-0.0158 0.046896,0.01 0.066817,0 0.3057969,-0.1529 -0.283534,0.0277 0.2004521,-0.13364 0.021129,-0.007 0.051068,0.0157 0.066817,0 0.015749,-0.0157 -0.015749,-0.0511 0,-0.0668 0.035216,-0.0352 0.098419,-0.0316 0.1336348,-0.0668 0.035216,-0.0352 0.025379,-0.106 0.066817,-0.13363 0.037064,-0.0247 0.093793,0.0199 0.1336348,0 0.019921,-0.01 -0.00996,-0.0469 0,-0.0668 0.014086,-0.0282 0.038645,-0.0527 0.066817,-0.0668 0.039842,-0.0199 0.1021367,0.0315 0.1336347,0 0.015749,-0.0158 -0.015749,-0.0511 0,-0.0668 0.1382476,-0.13825 -0.0054,0.21126 0.1336348,-0.0668 0.00996,-0.0199 -0.015749,-0.0511 0,-0.0668 0.031498,-0.0315 0.1021367,0.0315 0.1336348,0 0.015749,-0.0157 -0.015749,-0.0511 0,-0.0668 0.015749,-0.0158 0.051068,0.0157 0.066817,0 0.015748,-0.0158 -0.015748,-0.0511 0,-0.0668 0.015748,-0.0157 0.046896,0.01 0.066818,0 0.028173,-0.0141 0.044545,-0.0446 0.066817,-0.0668 0.022273,-0.0223 0.052731,-0.0386 0.066817,-0.0668 0.00996,-0.0199 -0.015748,-0.0511 0,-0.0668 0.00428,-0.004 0.2548234,-0.12534 0.2672694,-0.13364 0.052416,-0.0349 0.07729,-0.10546 0.133635,-0.13363 0.01992,-0.01 0.046896,0.01 0.066817,0 0.056345,-0.0282 0.081219,-0.0987 0.1336347,-0.13364 0.041438,-0.0276 0.092196,-0.0392 0.1336347,-0.0668 0.026207,-0.0175 0.038645,-0.0527 0.066818,-0.0668 0.019921,-0.01 0.051068,0.0157 0.066817,0 0.015748,-0.0157 -0.015748,-0.0511 0,-0.0668 0.015748,-0.0157 0.046896,0.01 0.066817,0 0.056345,-0.0282 0.081219,-0.0987 0.1336347,-0.13363 0.041438,-0.0276 0.098419,-0.0316 0.1336347,-0.0668 0.015748,-0.0157 -0.00996,-0.0469 0,-0.0668 0.00887,-0.0178 0.1827114,-0.19158 0.2004523,-0.20045 0.01992,-0.01 0.051068,0.0157 0.066817,0 0.015748,-0.0157 -0.015748,-0.0511 0,-0.0668 0.015748,-0.0157 0.046896,0.01 0.066817,0 0.028172,-0.0141 0.044545,-0.0445 0.066817,-0.0668 0.022273,-0.0223 0.044545,-0.0445 0.066817,-0.0668 0.08909,-0.0891 0.1781797,-0.17818 0.2672697,-0.26727 0.022273,-0.0223 0.038645,-0.0527 0.066817,-0.0668 0.01992,-0.01 0.046896,0.01 0.066817,0 0.028173,-0.0141 0.038645,-0.0527 0.066817,-0.0668 0.01992,-0.01 0.046896,0.01 0.066817,0 0.1230119,-0.0615 0.010623,-0.13894 0.1336349,-0.20045 0.071527,-0.0358 0.1425935,0.0579 0.2672694,-0.0668 0.015748,-0.0157 -0.015748,-0.0511 0,-0.0668 0.015748,-0.0158 0.051069,0.0157 0.066817,0 0.035216,-0.0352 0.039192,-0.0922 0.066817,-0.13364 0.061281,-0.0919 0.1030806,-0.0687 0.2004523,-0.13363 0.060825,-0.0405 0.1412293,-0.17085 0.200452,-0.20045 0.01992,-0.01 0.046896,0.01 0.066817,0 0.2216054,-0.22161 -0.062996,0.0315 0.1336349,-0.0668 0.1058334,-0.0529 0.027801,-0.0807 0.1336347,-0.13364 0.019921,-0.01 0.051068,0.0157 0.066817,0 0.035216,-0.0352 0.031601,-0.0984 0.066817,-0.13363 0.070432,-0.0704 0.1968378,-0.0632 0.2672696,-0.13364 0.015748,-0.0157 -0.015748,-0.0511 0,-0.0668 0.015748,-0.0158 0.046896,0.01 0.066817,0 0.028173,-0.0141 0.038645,-0.0527 0.066817,-0.0668 0.062996,-0.0315 0.1418495,-0.0278 0.2004521,-0.0668 0.018531,-0.0124 0,-0.0445 0,-0.0668 0.022273,-0.0223 0.038645,-0.0527 0.066818,-0.0668 0.039842,-0.0199 0.1021366,0.0315 0.1336347,0 0.015748,-0.0158 -0.015748,-0.0511 0,-0.0668 0.2607704,-0.26077 0.035884,0.0155 0.200452,-0.0668 0.028173,-0.0141 0.038645,-0.0527 0.066817,-0.0668 0.01992,-0.01 0.048286,0.0124 0.066818,0 0.052416,-0.0349 0.083238,-0.0958 0.1336347,-0.13363 0.079684,-0.0598 0.1843926,-0.0784 0.2672693,-0.13364 0.026207,-0.0175 0.036936,-0.0568 0.066818,-0.0668 0.1587842,-0.0529 0.1213554,0.0791 0.2672694,-0.0668 0.035216,-0.0352 0.031602,-0.0984 0.066817,-0.13364 0.015748,-0.0157 0.04521,0.005 0.066817,0 0.034792,-0.009 0.2880045,-0.0876 0.334087,-0.13363 0.015748,-0.0158 -0.015748,-0.0511 0,-0.0668 0.031498,-0.0315 0.1021368,0.0315 0.1336347,0 0.056784,-0.0568 0.070928,-0.15028 0.1336349,-0.20045 0.066817,-0.0223 0.1336347,-0.0445 0.2004521,-0.0668 0,-0.0223 -0.015748,-0.0511 0,-0.0668 0.015748,-0.0157 0.045688,0.007 0.066817,0 0.094494,-0.0315 0.170638,-0.10948 0.2672697,-0.13364 0.043215,-0.0108 0.091376,0.0141 0.1336347,0 0.029882,-0.01 0.038645,-0.0527 0.066817,-0.0668 0.039842,-0.0199 0.093793,0.0199 0.1336347,0 0.028173,-0.0141 0.052731,-0.0386 0.066817,-0.0668 0.01,-0.0199 -0.02113,-0.0598 0,-0.0668 0.06339,-0.0211 0.13563,0.0162 0.200452,0 0.03056,-0.008 0.03865,-0.0527 0.06682,-0.0668 0.01992,-0.01 0.04454,0 0.06682,0 0.08909,-0.0668 0.17461,-0.13868 0.26727,-0.20045 0.04144,-0.0276 0.08639,-0.0511 0.133634,-0.0668 0.02113,-0.007 0.05107,0.0158 0.06682,0 0.01575,-0.0157 -0.01992,-0.0569 0,-0.0668 0.042,-0.021 0.225273,0.021 0.267269,0 0.02817,-0.0141 0.03865,-0.0527 0.06682,-0.0668 0.042,-0.021 0.225273,0.021 0.267269,0 0.305797,-0.1529 -0.283534,0.0277 0.200452,-0.13364 0.04009,-0.0134 0.28077,0 0.334087,0 0.02227,0 0.04569,0.007 0.06682,0 0.04725,-0.0157 0.08639,-0.0511 0.133634,-0.0668 0.04596,-0.0153 0.161029,0.0197 0.200452,0 0.02817,-0.0141 0.03865,-0.0527 0.06682,-0.0668 0.0415,-0.0208 0.358089,0.0214 0.400904,0 0.02817,-0.0141 0.03694,-0.0569 0.06682,-0.0668 0.04226,-0.0141 0.09138,0.0141 0.133635,0 0.02988,-0.01 0.03626,-0.0592 0.06682,-0.0668 0.37999,0 0.04399,0.0299 0.334086,-0.0668 0.06014,-0.0201 0.140317,0.02 0.200453,0 0.04725,-0.0158 0.08532,-0.0547 0.133634,-0.0668 0.08643,-0.0216 0.187586,0.0398 0.26727,0 0.01992,-0.01 -0.01575,-0.0511 0,-0.0668 0.01575,-0.0158 0.04454,0 0.06682,0 0.04455,0 0.08909,0 0.133635,0 0.289542,0 0.579084,0 0.868626,0 0.334087,0 0.668174,0 1.002261,0 0.06913,0 0.416806,-0.0127 0.467722,0 0.04832,0.0121 0.08639,0.0511 0.133634,0.0668 0.07141,0.0238 0.277592,-0.0283 0.334087,0 0.01992,0.01 -0.01992,0.0568 0,0.0668 0.04372,0.0218 0.27867,-0.0139 0.334087,0 0.04832,0.0121 0.08532,0.0547 0.133635,0.0668 0.04322,0.0108 0.08909,0 0.133635,0 0.133634,0 0.267269,0 0.400904,0 0.06682,0 0.134932,-0.0131 0.200452,0 0.04884,0.01 0.08639,0.0511 0.133635,0.0668 0.02113,0.007 0.04521,-0.005 0.06682,0 0.06833,0.0171 0.131388,0.053 0.200452,0.0668 0.04368,0.009 0.08909,0 0.133635,0 0.111362,0 0.222725,0 0.334087,0 0.04455,0 0.09138,-0.0141 0.133635,0 0.04725,0.0157 0.08639,0.0511 0.133635,0.0668 0.04226,0.0141 0.09379,-0.0199 0.133634,0 0.02817,0.0141 0.03865,0.0527 0.06682,0.0668 0.01992,0.01 0.04454,0 0.06682,0 0.04454,0 0.08909,0 0.133635,0 0.07989,0 0.357295,-0.0145 0.400904,0 0.140317,0.0468 0.260588,0.15368 0.400904,0.20045 0.06339,0.0211 0.13563,-0.0162 0.200452,0 0.04832,0.0121 0.08639,0.0511 0.133635,0.0668 0.04226,0.0141 0.09379,-0.0199 0.133635,0 0.02817,0.0141 0.03865,0.0527 0.06682,0.0668 0.05345,0.0267 0.146999,-0.0267 0.200453,0 0.305796,0.1529 -0.283534,-0.0277 0.200452,0.13363 0.02113,0.007 0.04454,0 0.06682,0 0.07068,0 0.433299,-0.0115 0.467722,0 0.02988,0.01 0.03864,0.0527 0.06682,0.0668 0.03984,0.0199 0.09379,-0.0199 0.133635,0 0.02817,0.0141 0.03864,0.0527 0.06682,0.0668 0.133635,0.0668 0,-0.13364 0.200452,0 0.04144,0.0276 0.0316,0.0984 0.06682,0.13363 0.01783,0.0178 0.291417,-0.0142 0.334087,0 0.04725,0.0157 0.08639,0.0511 0.133634,0.0668 0.02113,0.007 0.04569,-0.007 0.06682,0 0.04725,0.0158 0.08532,0.0547 0.133635,0.0668 0.04322,0.0108 0.09138,-0.0141 0.133634,0 0.02988,0.01 0.03865,0.0527 0.06682,0.0668 0.01992,0.01 0.04569,-0.007 0.06682,0 0.04725,0.0157 0.08639,0.0511 0.133635,0.0668 0.04596,0.0153 0.161028,-0.0197 0.200452,0 0.144114,0.0721 -0.01048,0.0616 0.133635,0.13364 0.01992,0.01 0.0469,-0.01 0.06682,0 0.02817,0.0141 0.03864,0.0527 0.06682,0.0668 0.01992,0.01 0.04454,0 0.06682,0 0.04454,0.0223 0.0922,0.0392 0.133635,0.0668 0.02621,0.0175 0.03693,0.0569 0.06682,0.0668 0.08356,0.0278 0.384167,-0.0279 0.467722,0 0.05976,0.0199 0.07729,0.10546 0.133635,0.13363 0.01992,0.01 0.04454,0 0.06682,0 0.04766,0 0.284761,-0.0123 0.334087,0 0.06682,0.0223 0.133635,0.0446 0.200452,0.0668 0.02227,0.0223 0.03694,0.0569 0.06682,0.0668 0.03909,0.013 0.343553,0 0.400905,0 0.02227,0 0.04454,0 0.06682,0 0.02227,0 0.0469,-0.01 0.06682,0 0.02817,0.0141 0.03864,0.0527 0.06682,0.0668 0.03984,0.0199 0.09379,-0.0199 0.133635,0 0.165133,0.0826 -0.02306,0.0668 0.133634,0.0668 0.178181,0 0.35636,0 0.534541,0 0.08909,0 0.187584,-0.0398 0.267268,0 0.07183,0.0359 0.06477,0.15914 0.133634,0.20046 0.05729,0.0344 0.133635,0 0.200453,0 0.133633,0 0.267269,0 0.400905,0 0.04454,0 0.08995,-0.009 0.133633,0 0.06906,0.0138 0.131389,0.053 0.200453,0.0668 0.04368,0.009 0.09138,-0.0141 0.133634,0 0.02988,0.01 0.03626,0.0592 0.06682,0.0668 0.06482,0.0162 0.133636,0 0.200454,0 0.02228,0 0.04569,-0.007 0.06682,0 0.04725,0.0157 0.08639,0.0511 0.133633,0.0668 0.02114,0.007 0.04454,0 0.06682,0 0.04454,0 0.08909,0 0.133636,0 0.133633,0 0.267269,0 0.400902,0 0.467722,0 0.935445,0 1.403167,0 0.423175,0 0.846352,0 1.269529,0 0.133636,0 0.267269,0 0.400905,0 0.06682,0 0.13563,0.0162 0.200451,0 0.04832,-0.0121 0.08639,-0.0511 0.133635,-0.0668 0.04226,-0.0141 0.09379,0.0199 0.133636,0 0.02817,-0.0141 0.04454,-0.0445 0.06681,-0.0668 0.08909,-0.0445 0.174789,-0.0966 0.267272,-0.13363 0.04136,-0.0165 0.09042,0.0108 0.133633,0 0.06833,-0.0171 0.132125,-0.0497 0.200454,-0.0668 0.02162,-0.005 0.04689,0.01 0.06682,0 0.02817,-0.0141 0.03864,-0.0527 0.06682,-0.0668 0.03984,-0.0199 0.09657,0.0247 0.133635,0 0.05242,-0.0349 0.08122,-0.0987 0.133636,-0.13363 0.0291,-0.0194 0.165182,0.0176 0.200451,0 0.02817,-0.0141 0.03865,-0.0527 0.06682,-0.0668 0.03984,-0.0199 0.09379,0.0199 0.133633,0 0.02817,-0.0141 0.04061,-0.0493 0.06682,-0.0668 0.08288,-0.0553 0.187587,-0.0739 0.267272,-0.13363 0.202287,0.16488 0.114929,-0.18175 0.133633,-0.20045 0.01574,-0.0157 0.04521,0.005 0.06682,0 0.06833,-0.0171 0.137456,-0.0353 0.20045,-0.0668 0.02817,-0.0141 0.03865,-0.0527 0.06682,-0.0668 0.01992,-0.01 0.04569,0.007 0.06682,0 0.04725,-0.0158 0.08909,-0.0445 0.133636,-0.0668 0.04454,-0.0223 0.0922,-0.0392 0.133633,-0.0668 0.02622,-0.0175 0.03865,-0.0527 0.06682,-0.0668 0.01992,-0.01 0.05107,0.0158 0.06682,0 0.01574,-0.0157 -0.01574,-0.0511 0,-0.0668 0.01574,-0.0157 0.0469,0.01 0.06682,0 0.05635,-0.0282 0.07387,-0.11371 0.133633,-0.13363 0.04226,-0.0141 0.0938,0.0199 0.133636,0 0.05635,-0.0282 0.08122,-0.0987 0.133635,-0.13364 0.01852,-0.0123 0.04569,0.007 0.06682,0 0.483986,-0.16133 -0.105344,0.0193 0.200453,-0.13363 0.01992,-0.01 0.0469,0.01 0.06682,0 0.305795,-0.1529 -0.283535,0.0277 0.200451,-0.13364 0.02114,-0.007 0.04829,0.0124 0.06682,0 0.05242,-0.0349 0.07962,-0.10122 0.133636,-0.13363 0.0473,-0.20373 0.185131,-0.0258 0.267268,-0.0668 0.02817,-0.0141 0.03865,-0.0527 0.06682,-0.0668 0.01992,-0.01 0.04689,0.01 0.06682,0 0.02817,-0.0141 0.04454,-0.0445 0.06682,-0.0668 0.04455,-0.0446 0.08122,-0.0987 0.133636,-0.13364 0.03706,-0.0247 0.102137,0.0315 0.133636,0 0.01574,-0.0157 -0.01574,-0.0511 0,-0.0668 0.0315,-0.0315 0.09657,0.0247 0.133633,0 0.05242,-0.035 0.08324,-0.0958 0.133636,-0.13364 0.03984,-0.0299 0.08909,-0.0445 0.133633,-0.0668 0.04454,-0.0223 0.08639,-0.0511 0.133636,-0.0668 0.02114,-0.007 0.0469,0.01 0.06682,0 0.02817,-0.0141 0.03865,-0.0527 0.06682,-0.0668 0.063,-0.0315 0.132123,-0.0497 0.200451,-0.0668 0.02162,-0.005 0.0469,0.01 0.06682,0 0.07183,-0.0359 0.136208,-0.0854 0.200451,-0.13363 0.0504,-0.0378 0.07729,-0.10547 0.133636,-0.13364 0.01992,-0.01 0.0469,0.01 0.06682,0 0.02817,-0.0141 0.03865,-0.0527 0.06682,-0.0668 0.01992,-0.01 0.04689,0.01 0.06681,0 0.203764,-0.10188 -0.122203,-0.053 0.200454,-0.13363 0.30417,0 0.0038,0.0315 0.200451,-0.0668 0.01992,-0.01 0.0469,0.01 0.06682,0 0.02817,-0.0141 0.04222,-0.0471 0.06682,-0.0668 0.08696,-0.0696 0.171778,-0.14315 0.267269,-0.20045 0.0191,-0.0115 0.04569,0.007 0.06682,0 0.04725,-0.0158 0.0848,-0.0571 0.133636,-0.0668 0.06552,-0.0131 0.143155,0.0344 0.200451,0 0.06886,-0.0413 0.06939,-0.15226 0.133636,-0.20045 0.02143,-0.0161 0.223408,0.0146 0.267268,0 0.02988,-0.01 0.03694,-0.0568 0.06682,-0.0668 0.04226,-0.0141 0.09379,0.0199 0.133633,0 0.01992,-0.01 -0.01574,-0.0511 0,-0.0668 6.6e-5,-7e-5 0.20015,10e-5 0.200454,0 0.02988,-0.01 0.04454,-0.0445 0.06682,-0.0668 0.04454,-0.0223 0.08532,-0.0547 0.133633,-0.0668 0.148484,-0.0371 0.167045,0.0557 0.334087,0 0.02114,-0.007 -0.01574,-0.0511 0,-0.0668 0.01574,-0.0157 0.04454,0 0.06682,0 0.02228,0 0.04454,0 0.06682,0 0.04766,0 0.284761,0.0123 0.334087,0 0.06833,-0.0171 0.132122,-0.0497 0.200451,-0.0668 0.05694,-0.0142 0.141544,0 0.200454,0 0.133635,0 0.267269,0 0.400904,0 0.244997,0 0.489993,0 0.734992,0 0.07296,0 0.290875,0.0144 0.334086,0 0.04725,-0.0157 0.08639,-0.0511 0.133633,-0.0668 0.0435,-0.0145 0.411785,0 0.467723,0 0.234926,0 0.441082,0 0.801809,0 0.200451,0 0.400905,0 0.601356,0 0.05379,0 0.225332,-0.014 0.267269,0 0.04725,0.0158 0.08532,0.0547 0.133635,0.0668 0.04321,0.0108 0.08909,0 0.133636,0 0.04454,0.0223 0.08639,0.0511 0.133633,0.0668 0.04226,0.0141 0.102137,-0.0315 0.133636,0 0.01574,0.0157 -0.01574,0.0511 0,0.0668 0.01574,0.0157 0.04454,0 0.06682,0 0.05259,0 0.328721,-0.005 0.334087,0 0.08909,0.0891 -0.141743,0.0641 0.06682,0.13364 0.04226,0.0141 0.08909,0 0.133634,0 0.02228,0 0.0469,-0.01 0.06682,0 0.02817,0.0141 0.04061,0.0493 0.06682,0.0668 0.130109,0.0867 0.122624,0.0668 0.267269,0.0668"
       id="path3751"
       inkscape:connector-curvature="0" />
    <path
       style="fill:#008000;stroke-width:0.25253814"
       d="m -0.10829495,119.74267 c 0,-0.20346 0.2154947,-0.48525 0.47887713,-0.62621 0.26338243,-0.14096 1.61443012,-1.39502 3.00232802,-2.7868 1.3878981,-1.39179 2.6358365,-2.53052 2.7731968,-2.53052 0.13736,0 0.4011351,-0.18242 0.5861665,-0.40536 0.1850314,-0.22295 0.9931294,-0.85133 1.7957732,-1.39639 0.8026437,-0.54507 1.6595383,-1.18847 1.9042093,-1.42977 0.244672,-0.24131 1.08462,-0.86741 1.866551,-1.39135 1.180515,-0.791 5.177169,-4.09132 6.84111,-5.64918 0.238767,-0.22355 0.652,-0.53233 0.918296,-0.68618 0.266297,-0.15384 1.434648,-1.00917 2.596337,-1.90071 2.86865,-2.201561 5.186942,-3.80858 5.494278,-3.80858 0.139902,0 0.759524,-0.340926 1.376937,-0.757614 0.617415,-0.416688 1.23423,-0.757614 1.370699,-0.757614 0.136469,0 0.389598,-0.170464 0.562508,-0.378808 0.17291,-0.208344 0.488843,-0.378807 0.702074,-0.378807 0.21323,0 0.9664,-0.439399 1.673711,-0.976442 0.707309,-0.537043 1.829528,-1.178931 2.493822,-1.426418 0.664292,-0.247487 1.267618,-0.546763 1.340728,-0.665056 0.07311,-0.118294 0.331256,-0.21508 0.573658,-0.21508 0.242401,0 0.945957,-0.317802 1.563458,-0.706227 0.63696,-0.400665 1.996852,-0.893399 3.143034,-1.138825 3.46003,-0.740879 6.227818,-1.190101 6.457592,-1.048092 0.121221,0.07492 0.479308,-0.03174 0.795746,-0.237026 0.31644,-0.205282 1.086734,-0.460003 1.711766,-0.566044 1.42481,-0.241731 10.635679,-0.254949 11.995562,-0.01721 0.555584,0.09713 2.089753,0.297145 3.409265,0.444484 6.074522,0.678293 9.151752,1.131104 9.747919,1.434396 0.263932,0.134271 1.193464,0.390924 2.06563,0.570339 0.872166,0.179415 1.645958,0.423618 1.719537,0.542671 0.07358,0.119054 0.553233,0.217096 1.065896,0.217871 0.934732,0.0014 2.512714,0.340288 3.457494,0.742507 0.884869,0.376711 4.038961,1.276388 4.474774,1.276388 0.230951,0 0.491212,0.115364 0.578353,0.256365 0.288871,0.467401 2.005491,1.099162 2.813366,1.035393 0.437484,-0.03453 0.870349,0.05844 0.961922,0.206611 0.09157,0.148169 0.493318,0.269398 0.892768,0.269398 0.399447,0 1.046185,0.126053 1.43719,0.280118 0.73732,0.29052 1.001869,0.325301 4.706633,0.61879 1.72098,0.136335 2.29086,0.277245 2.50445,0.619255 0.20739,0.332092 0.50266,0.412614 1.18132,0.322152 0.49765,-0.06633 1.78075,0.06067 2.85134,0.282229 1.52796,0.316215 3.5372,0.401645 9.34391,0.397291 6.82373,-0.0051 7.48276,-0.04428 8.49825,-0.505076 0.60548,-0.274741 1.26016,-0.49953 1.45485,-0.49953 0.19469,0 0.83572,-0.213316 1.42451,-0.474036 0.5888,-0.26072 1.61164,-0.668362 2.27298,-0.905871 0.66134,-0.237509 1.31074,-0.634212 1.44312,-0.881563 0.13238,-0.24735 0.55724,-0.51304 0.94414,-0.590422 0.3869,-0.07738 1.15802,-0.450479 1.7136,-0.829105 0.96817,-0.659799 2.42209,-1.497745 4.04061,-2.328745 0.41669,-0.213941 0.84849,-0.54026 0.95957,-0.725155 0.11107,-0.184894 0.48799,-0.336171 0.83759,-0.336171 0.34961,0 0.99741,-0.270439 1.43955,-0.600976 0.44214,-0.330537 1.71304,-1.032539 2.8242,-1.560005 1.11117,-0.527466 2.54427,-1.279806 3.18466,-1.671867 0.6404,-0.392061 1.33304,-0.712838 1.53922,-0.712838 0.20618,0 0.58056,-0.227285 0.83196,-0.505077 0.2514,-0.277791 0.56503,-0.505076 0.69695,-0.505076 0.13192,0 0.7947,-0.278682 1.47284,-0.619293 0.67814,-0.340611 1.6606,-0.698682 2.18325,-0.795714 0.52264,-0.09703 1.1784,-0.324752 1.45723,-0.506047 0.27884,-0.181294 0.73341,-0.332264 1.01016,-0.335488 0.27675,-0.0032 1.24185,-0.120736 2.14468,-0.261136 0.90282,-0.1404 2.94838,-0.269271 4.54568,-0.28638 1.59731,-0.01711 4.552,-0.08472 6.566,-0.150248 3.58763,-0.116728 6.9042,0.20716 7.21142,0.704251 0.0781,0.126363 0.38978,0.22975 0.69264,0.22975 1.00579,0 2.70057,0.848677 2.70159,1.352844 7.6e-4,0.34723 -0.11377,0.422062 -0.44099,0.288285 -0.24307,-0.09937 -0.81128,-0.287335 -1.2627,-0.417697 -0.45141,-0.130361 -0.82074,-0.344047 -0.82074,-0.474859 0,-0.130811 -0.2557,-0.230375 -0.56822,-0.221253 -0.31251,0.0091 -1.02277,-0.106419 -1.57836,-0.256758 -1.57201,-0.425384 -14.85756,-0.253972 -17.50352,0.225832 -0.86493,0.156841 -1.65635,0.233404 -1.75871,0.170139 -0.10237,-0.06327 -0.61477,0.09347 -1.13868,0.348307 -0.52391,0.254834 -1.28249,0.535798 -1.68573,0.624364 -0.40324,0.08857 -0.86857,0.324187 -1.03407,0.523603 -0.1655,0.199416 -0.57904,0.362574 -0.91897,0.362574 -0.33993,0 -1.0931,0.323724 -1.67371,0.719386 -0.58061,0.395663 -1.35941,0.793377 -1.73067,0.88381 -0.37126,0.09043 -0.99629,0.430402 -1.38896,0.755487 -0.39267,0.325084 -1.10096,0.723116 -1.57398,0.884516 -0.47302,0.161399 -1.76777,0.817037 -2.87723,1.456972 -1.10946,0.639935 -2.14545,1.182341 -2.3022,1.205347 -0.15675,0.02301 -0.82801,0.408308 -1.49171,0.856228 -0.66369,0.447919 -1.34874,0.814399 -1.52235,0.814399 -0.1736,0 -0.4338,0.118163 -0.57822,0.262585 -0.34875,0.348755 -1.70753,1.127804 -3.17783,1.821993 -0.65605,0.30975 -1.22426,0.717051 -1.26269,0.905113 -0.0717,0.350749 -0.37787,0.484547 -3.85794,1.685743 -1.11117,0.383537 -2.53169,0.937402 -3.15672,1.230813 -1.05976,0.497487 -1.62521,0.538687 -8.38207,0.610743 -4.75993,0.05076 -7.70558,-0.0215 -8.5863,-0.210632 -0.73736,-0.158344 -2.22812,-0.347506 -3.31281,-0.42036 -1.53054,-0.102801 -2.03572,-0.234262 -2.25607,-0.587086 -0.23579,-0.377566 -0.51213,-0.431071 -1.63029,-0.315666 -1.07484,0.110933 -1.44747,0.04746 -1.847671,-0.314711 -0.275713,-0.249517 -0.501298,-0.342786 -0.501298,-0.207264 0,0.275631 -1.879071,0.05309 -3.255815,-0.385589 -0.471188,-0.150137 -0.959165,-0.209652 -1.084394,-0.132257 -0.125229,0.0774 -0.485083,-0.02793 -0.799675,-0.234059 -0.314591,-0.206129 -0.857061,-0.320284 -1.205485,-0.253678 -0.416016,0.07953 -1.075146,-0.139302 -1.919937,-0.637407 -0.707536,-0.41718 -1.331984,-0.712957 -1.387656,-0.657284 -0.05568,0.05567 -0.851771,-0.171009 -1.769103,-0.503739 -0.917335,-0.332731 -1.727255,-0.545589 -1.799824,-0.47302 -0.143601,0.143602 -2.380624,-0.629493 -2.853262,-0.98606 -0.160334,-0.12096 -0.576428,-0.148418 -0.924656,-0.06102 -0.663054,0.166415 -3.513189,-0.584822 -5.423938,-1.429638 -0.616107,-0.272406 -1.337485,-0.415846 -1.670719,-0.332209 -0.322547,0.08095 -1.084687,0.0078 -1.693647,-0.162476 -0.608961,-0.170316 -1.504948,-0.286591 -1.991084,-0.258388 -0.486136,0.0282 -1.338452,-0.107644 -1.894036,-0.301882 -0.555584,-0.194237 -1.411903,-0.304153 -1.902931,-0.244257 -0.491027,0.0599 -1.513807,-0.01596 -2.272843,-0.168561 -0.759036,-0.152604 -1.720992,-0.326935 -2.13768,-0.387403 -1.354874,-0.196612 -9.817531,-0.112009 -10.985409,0.109823 -0.640229,0.121609 -1.252528,0.119739 -1.402336,-0.0043 -0.15969,-0.1322 -0.605006,-0.01393 -1.114757,0.296072 -0.466862,0.283915 -1.31316,0.561388 -1.880659,0.616605 -0.567498,0.05522 -1.522075,0.21821 -2.12128,0.362207 -0.599204,0.143997 -1.19249,0.198139 -1.31841,0.120316 -0.125918,-0.07782 -0.544798,0.01842 -0.930841,0.21388 -0.386042,0.195457 -1.156465,0.435027 -1.712049,0.532378 -0.555584,0.09735 -1.415706,0.441443 -1.911386,0.764649 -0.495676,0.323206 -1.518456,0.83557 -2.272843,1.138587 -2.116744,0.850242 -3.061487,1.346642 -3.723884,1.956659 -0.334525,0.308071 -0.851251,0.634029 -1.148281,0.72435 -0.29703,0.09032 -0.728962,0.329836 -0.959847,0.532253 -0.230886,0.202417 -0.581184,0.391719 -0.778444,0.42067 -0.197257,0.02895 -1.178517,0.560159 -2.180576,1.180462 -1.002061,0.620302 -2.015466,1.242843 -2.252016,1.383424 -1.011648,0.601224 -1.987655,1.293398 -2.574081,1.825518 -0.345821,0.31379 -0.753256,0.57053 -0.90541,0.57053 -0.152155,0 -0.795362,0.51139 -1.42935,1.13642 -0.633987,0.62503 -1.215875,1.13642 -1.293084,1.13642 -0.328012,0 -2.139937,1.38608 -3.558267,2.722 -1.42699,1.34407 -2.378658,2.08993 -8.1269409,6.36937 -1.2126994,0.90283 -2.9135739,2.32336 -3.7797208,3.15673 -3.1727707,3.05273 -4.49499172,4.16226 -4.96406565,4.16555 -0.10417198,7.3e-4 -0.1894036,-0.16513 -0.1894036,-0.36859 z"
       id="path3753"
       inkscape:connector-curvature="0"
       transform="matrix(0.26458333,0,0,0.26458333,0,241.70207)" />
    <path
       style="fill:#008000;stroke-width:0.25253814"
       d=""
       id="path3755"
       inkscape:connector-curvature="0"
       transform="matrix(0.26458333,0,0,0.26458333,0,241.70207)" />
    <path
       style="fill:#008000;stroke-width:0.25253814"
       d="M 82.947351,204.9981 C 70.00207,197.52981 0.3861609,156.79344 0.08762194,156.512 c -0.10058971,-0.0948 -0.11041491,-8.32349 -0.0218338,-18.28591 0.13470683,-15.15003 0.21804343,-18.1135 0.50937559,-18.1135 0.33029205,0 1.21586787,-0.77106 4.20563827,-3.6618 0.7182709,-0.69448 2.0428527,-1.8007 2.943515,-2.45826 0.9006624,-0.65757 2.1362951,-1.62352 2.74585,-2.14658 0.609556,-0.52305 1.96796,-1.5624 3.018677,-2.30966 1.050717,-0.74727 2.597549,-2.01973 3.437404,-2.82768 1.450866,-1.39576 3.235857,-2.75625 3.621665,-2.76036 0.098,-0.001 0.679595,-0.51243 1.292426,-1.13642 0.61283,-0.62399 1.218083,-1.13452 1.345007,-1.13452 0.126923,0 0.877787,-0.48298 1.668587,-1.07329 0.790798,-0.59031 1.662893,-1.211827 1.937988,-1.381154 0.275095,-0.169327 1.328108,-0.822769 2.340031,-1.452094 1.011923,-0.629325 1.992377,-1.144228 2.178785,-1.144228 0.186411,0 0.480401,-0.170463 0.653311,-0.378807 0.172911,-0.208344 0.44252,-0.380293 0.599132,-0.38211 0.156614,-0.0018 1.131156,-0.570027 2.165648,-1.262691 1.034493,-0.692663 2.01177,-1.259388 2.171725,-1.259388 0.159955,0 1.285904,-0.511969 2.50211,-1.13771 1.216203,-0.625741 2.682235,-1.209466 3.257845,-1.297167 0.57561,-0.0877 1.160206,-0.242721 1.299102,-0.344488 0.138896,-0.101768 0.763928,-0.24874 1.38896,-0.326606 2.133773,-0.265822 4.093264,-0.663973 4.382786,-0.890542 0.418903,-0.327819 1.606716,-0.38531 8.37039,-0.405137 3.588713,-0.01052 7.142503,0.117022 8.712565,0.312685 7.786635,0.970382 9.33262,1.200113 10.227795,1.519837 2.75582,0.984279 3.973925,1.307107 4.950422,1.311984 0.610771,0.0031 1.605882,0.230335 2.211357,0.505076 0.605478,0.274742 1.296973,0.49953 1.536657,0.49953 0.625385,0 3.44836,0.933186 5.008662,1.655705 0.733,0.339426 1.720661,0.617138 2.194804,0.617138 0.47414,0 0.922994,0.09857 0.99745,0.219042 0.07446,0.120473 0.620963,0.290688 1.214461,0.378257 0.593497,0.08757 1.704117,0.27027 2.468045,0.406003 0.763928,0.135734 2.241276,0.321275 3.282996,0.412313 1.12566,0.09837 2.07389,0.322219 2.33737,0.551776 0.26144,0.227778 1.09034,0.425613 2.0203,0.482189 0.86734,0.05277 2.19447,0.20505 2.94918,0.338408 0.75472,0.133358 4.76425,0.24247 8.91008,0.24247 6.33287,0 7.68797,-0.06428 8.47678,-0.402094 0.5164,-0.221152 1.50712,-0.573674 2.2016,-0.783382 0.69448,-0.209707 1.37633,-0.459502 1.51523,-0.555098 0.1389,-0.0956 0.93439,-0.388943 1.76777,-0.651882 0.83337,-0.262938 1.84123,-0.798159 2.23967,-1.189381 0.39845,-0.391221 0.85505,-0.711311 1.01466,-0.711311 0.15963,0 0.68924,-0.271138 1.17693,-0.602529 0.79942,-0.543221 2.14896,-1.299305 5.54399,-3.106021 0.62504,-0.33262 2.04556,-1.107932 3.15673,-1.722916 1.11117,-0.614983 2.20526,-1.121835 2.43133,-1.126338 0.22606,-0.0045 0.55813,-0.185447 0.73793,-0.402096 0.32864,-0.395984 2.16297,-1.373859 2.57713,-1.373859 0.12208,0 0.5851,-0.276983 1.02894,-0.615517 0.44384,-0.338535 1.13205,-0.674464 1.52936,-0.746509 0.3973,-0.07205 0.9073,-0.284883 1.13333,-0.472974 0.41942,-0.349015 3.03354,-1.248 3.9465,-1.357181 0.27779,-0.03322 1.35739,-0.175897 2.39911,-0.317057 2.73819,-0.371043 15.75092,-0.333407 17.1726,0.04967 0.62503,0.168416 1.25006,0.37056 1.38896,0.449209 0.13889,0.07865 0.75273,0.300637 1.36409,0.493308 l 1.11155,0.350311 -0.16406,15.162372 c -0.0902,8.339304 -0.2386,24.998844 -0.3297,37.021194 l -0.16563,21.85883 -10.37831,5.90016 c -52.64586,29.92968 -78.02127,44.32615 -79.603153,45.16203 -0.466898,0.24672 -1.408898,-0.22203 -7.449876,-3.70715 z"
       id="path3757"
       inkscape:connector-curvature="0"
       transform="matrix(0.26458333,0,0,0.26458333,0,241.70207)" />
    <text
       xml:space="preserve"
       style="font-style:normal;font-weight:normal;font-size:10.58333302px;line-height:1.25;font-family:sans-serif;letter-spacing:0px;word-spacing:0px;fill:#000000;fill-opacity:1;stroke:none;stroke-width:0.26458332"
       x="3.0134997"
       y="260.71341"
       id="text4635"><tspan
         sodipodi:role="line"
         id="tspan4633"
         x="3.0134997"
         y="260.71341"
         style="font-style:normal;font-variant:normal;font-weight:normal;font-stretch:normal;font-size:10.58333302px;font-family:Gabriola;-inkscape-font-specification:'Gabriola, Normal';font-variant-ligatures:normal;font-variant-caps:normal;font-variant-numeric:normal;font-feature-settings:normal;text-align:start;writing-mode:lr-tb;text-anchor:start;stroke-width:0.26458332">RANGEMAP</tspan></text>
  </g>
  <g
     inkscape:groupmode="layer"
     id="layer2"
     inkscape:label="Yellow dot">
    <circle
       style="fill:#ffcc00;stroke:#000000;stroke-width:0.17200001;stroke-miterlimit:4;stroke-dasharray:none;stroke-opacity:1"
       id="path3762"
       cx="4.7774425"
       cy="33.147957"
       r="1.1490686" />
    <circle
       style="fill:#ffcc00;stroke:#000000;stroke-width:0.17200001;stroke-miterlimit:4;stroke-dasharray:none;stroke-opacity:1"
       id="path3762-1"
       cx="19.911579"
       cy="36.455414"
       r="1.1490686" />
    <circle
       style="fill:#ffcc00;stroke:#000000;stroke-width:0.17200001;stroke-miterlimit:4;stroke-dasharray:none;stroke-opacity:1"
       id="path3762-9"
       cx="21.247929"
       cy="35.319519"
       r="1.1490686" />
    <circle
       style="fill:#ffcc00;stroke:#000000;stroke-width:0.17200001;stroke-miterlimit:4;stroke-dasharray:none;stroke-opacity:1"
       id="path3762-0"
       cx="40.82542"
       cy="33.114544"
       r="1.1490686" />
    <circle
       style="fill:#ffcc00;stroke:#000000;stroke-width:0.17200001;stroke-miterlimit:4;stroke-dasharray:none;stroke-opacity:1"
       id="path3762-6"
       cx="24.722433"
       cy="50.487068"
       r="1.1490686" />
    <circle
       style="fill:#ffcc00;stroke:#000000;stroke-width:0.17200001;stroke-miterlimit:4;stroke-dasharray:none;stroke-opacity:1"
       id="path3762-94"
       cx="36.148205"
       cy="43.671696"
       r="1.1490686" />
    <circle
       style="fill:#ffcc00;stroke:#000000;stroke-width:0.17200001;stroke-miterlimit:4;stroke-dasharray:none;stroke-opacity:1"
       id="path3762-00"
       cx="7.6171823"
       cy="39.328564"
       r="1.1490686" />
    <circle
       style="fill:#ffcc00;stroke:#000000;stroke-width:0.17200001;stroke-miterlimit:4;stroke-dasharray:none;stroke-opacity:1"
       id="path3762-2"
       cx="19.377041"
       cy="24.962824"
       r="1.1490686" />
  </g>
</svg>
